<?xml version="1.0" encoding="utf-8"?>
<svg width="29" height="30" viewBox="0 0 29 30" fill="none" xmlns="http://www.w3.org/2000/svg">
  <path d="M 19.109 14.983 L 28.015 5.826 C 29.31 4.495 29.31 2.497 28.015 1.165 C 27.529 0.499 26.72 0 25.91 0 C 25.1 0 24.291 0.333 23.643 0.999 L 14.575 10.321 L 5.668 1.165 C 4.372 -0.166 2.267 -0.166 1.134 1.165 C 0.486 1.665 0 2.497 0 3.496 C 0 4.495 0.324 5.16 0.972 5.826 L 9.878 14.983 L 0.972 24.139 C 0.486 24.805 0 25.637 0 26.636 C 0 27.468 0.324 28.3 0.972 28.966 C 1.619 29.632 2.429 29.965 3.239 29.965 C 4.048 29.965 4.858 29.632 5.506 28.966 L 14.413 19.811 L 23.319 28.966 C 24.614 30.298 26.72 30.298 27.853 28.966 C 29.149 27.635 29.149 25.471 27.853 24.305 L 19.109 14.983 Z" fill="#212128" style=""/>
</svg>